<svg width="400" height="400" viewBox="0 0 400 400" xmlns="http://www.w3.org/2000/svg">
  <defs>
    <linearGradient id="carGradient" x1="0%" y1="0%" x2="0%" y2="100%">
      <stop offset="0%" style="stop-color:#3b82f6;stop-opacity:1" />
      <stop offset="100%" style="stop-color:#2563eb;stop-opacity:1" />
    </linearGradient>
  </defs>
  
  <!-- Background circle -->
  <circle cx="200" cy="200" r="180" fill="#f0f9ff" stroke="#bfdbfe" stroke-width="4"/>
  
  <!-- Car illustration -->
  <g transform="translate(100, 150)">
    <!-- Car body -->
    <rect x="20" y="50" width="160" height="60" rx="10" fill="url(#carGradient)" stroke="#1e40af" stroke-width="4"/>
    
    <!-- Roof -->
    <path d="M 45 50 L 65 15 L 135 15 L 155 50 Z" fill="#60a5fa" stroke="#1e40af" stroke-width="4"/>
    
    <!-- Windows -->
    <path d="M 50 45 L 67 20 L 98 20 L 98 45 Z" fill="#dbeafe" stroke="#1e40af" stroke-width="3"/>
    <path d="M 102 45 L 102 20 L 133 20 L 150 45 Z" fill="#dbeafe" stroke="#1e40af" stroke-width="3"/>
    
    <!-- Wheels -->
    <circle cx="55" cy="110" r="22" fill="#1f2937" stroke="#111827" stroke-width="4"/>
    <circle cx="55" cy="110" r="12" fill="#6b7280" stroke="#374151" stroke-width="3"/>
    <circle cx="145" cy="110" r="22" fill="#1f2937" stroke="#111827" stroke-width="4"/>
    <circle cx="145" cy="110" r="12" fill="#6b7280" stroke="#374151" stroke-width="3"/>
    
    <!-- Headlight -->
    <circle cx="175" cy="70" r="6" fill="#fbbf24" stroke="#f59e0b" stroke-width="2"/>
    
    <!-- Taillight -->
    <circle cx="25" cy="70" r="5" fill="#ef4444" stroke="#dc2626" stroke-width="2"/>
  </g>
  
  <!-- Key icon -->
  <g transform="translate(280, 100)">
    <circle cx="0" cy="0" r="15" fill="none" stroke="#10b981" stroke-width="5"/>
    <rect x="10" y="-4" width="30" height="8" rx="2" fill="#10b981"/>
    <rect x="30" y="-10" width="6" height="6" fill="#10b981"/>
    <rect x="30" y="4" width="6" height="6" fill="#10b981"/>
  </g>
  
  <!-- Document icon -->
  <g transform="translate(80, 100)">
    <rect x="0" y="0" width="40" height="50" rx="3" fill="white" stroke="#64748b" stroke-width="3"/>
    <line x1="8" y1="12" x2="32" y2="12" stroke="#94a3b8" stroke-width="2" stroke-linecap="round"/>
    <line x1="8" y1="20" x2="32" y2="20" stroke="#cbd5e1" stroke-width="2" stroke-linecap="round"/>
    <line x1="8" y1="28" x2="28" y2="28" stroke="#cbd5e1" stroke-width="2" stroke-linecap="round"/>
    <line x1="8" y1="36" x2="30" y2="36" stroke="#cbd5e1" stroke-width="2" stroke-linecap="round"/>
  </g>
</svg>
