<svg width="200" height="200" viewBox="0 0 200 200" xmlns="http://www.w3.org/2000/svg">
  <!-- Car body -->
  <g id="car">
    <!-- Main body -->
    <rect x="40" y="100" width="120" height="50" rx="8" fill="#2563eb" stroke="#1e40af" stroke-width="3"/>
    
    <!-- Roof -->
    <path d="M 60 100 L 75 70 L 125 70 L 140 100 Z" fill="#3b82f6" stroke="#1e40af" stroke-width="3"/>
    
    <!-- Windows -->
    <path d="M 65 95 L 77 75 L 100 75 L 100 95 Z" fill="#dbeafe" stroke="#1e40af" stroke-width="2"/>
    <path d="M 105 95 L 105 75 L 123 75 L 135 95 Z" fill="#dbeafe" stroke="#1e40af" stroke-width="2"/>
    
    <!-- Wheels -->
    <circle cx="70" cy="150" r="18" fill="#1f2937" stroke="#111827" stroke-width="3"/>
    <circle cx="70" cy="150" r="10" fill="#6b7280" stroke="#374151" stroke-width="2"/>
    <circle cx="130" cy="150" r="18" fill="#1f2937" stroke="#111827" stroke-width="3"/>
    <circle cx="130" cy="150" r="10" fill="#6b7280" stroke="#374151" stroke-2"/>
    
    <!-- Headlight -->
    <circle cx="155" cy="115" r="5" fill="#fbbf24" stroke="#f59e0b" stroke-width="2"/>
    
    <!-- Door handle -->
    <rect x="95" y="115" width="10" height="3" rx="1.5" fill="#1e40af"/>
    
    <!-- Key icon overlay -->
    <g transform="translate(160, 40)">
      <circle cx="0" cy="0" r="8" fill="none" stroke="#10b981" stroke-width="3"/>
      <rect x="5" y="-2" width="15" height="4" rx="1" fill="#10b981"/>
      <rect x="15" y="-5" width="3" height="3" fill="#10b981"/>
      <rect x="15" y="2" width="3" height="3" fill="#10b981"/>
    </g>
  </g>
  
  <!-- Document lines -->
  <g id="document" transform="translate(20, 30)">
    <line x1="0" y1="0" x2="30" y2="0" stroke="#94a3b8" stroke-width="2" stroke-linecap="round"/>
    <line x1="0" y1="8" x2="25" y2="8" stroke="#cbd5e1" stroke-width="2" stroke-linecap="round"/>
    <line x1="0" y1="16" x2="28" y2="16" stroke="#cbd5e1" stroke-width="2" stroke-linecap="round"/>
  </g>
</svg>
